<svg xmlns="http://www.w3.org/2000/svg" viewBox="0 0 24 24">
  <path d="M5 3h14a2 2 0 0 1 2 2v14a2 2 0 0 1-2 2H5a2 2 0 0 1-2-2V5a2 2 0 0 1 2-2Zm0 2v3h14V5H5Zm5.1 5.2c-1.7 0-2.4.8-2.4 2.1v1.1c0 .7-.3 1-1 1v1.7c.7 0 1 .3 1 1v1.1c0 1.3.7 2.1 2.4 2.1v-1.7c-.4 0-.6-.2-.6-.7v-1c0-.9-.3-1.5-1-1.8.7-.3 1-.9 1-1.8v-1c0-.5.2-.7.6-.7v-1.4Zm3.8 0v1.4c.4 0 .6.2.6.7v1c0 .9.3 1.5 1 1.8-.7.3-1 .9-1 1.8v1c0 .5-.2.7-.6.7v1.7c1.7 0 2.4-.8 2.4-2.1v-1.1c0-.7.3-1 1-1v-1.7c-.7 0-1-.3-1-1v-1.1c0-1.3-.7-2.1-2.4-2.1Z"/>
</svg>
